<svg width="66" height="21" viewBox="0 0 66 21" fill="none" xmlns="http://www.w3.org/2000/svg">
<g id="Group 107">
<path id="Vector" d="M19.6173 2.20649V20.9316H15.1588V12.0817H12.1273V20.085H3.41046C0.534833 20.085 0 19.2156 0 16.4071V4.41417C0 1.6045 0.534833 0.735096 3.41046 0.735096H8.71562C11.5913 0.735096 12.1261 1.6045 12.1261 4.41297V8.26953H15.1576V2.20649C15.1576 0.75788 16.2057 0 17.3869 0C18.5681 0 19.6161 0.75788 19.6161 2.20649H19.6173ZM7.82463 16.5858V4.97179C7.82463 4.5257 7.71311 4.23669 7.22265 4.23669H4.88185C4.39139 4.23669 4.30265 4.52689 4.30265 4.97179V15.8279C4.30265 16.3184 4.45854 16.5858 5.03774 16.5858H7.82463Z" fill="black" fill-opacity="0.12"/>
<path id="Vector_2" d="M34.3976 11.5023H25.2803C23.0954 11.5023 22.3159 10.9447 22.3159 8.87129V3.29871C22.3159 1.22534 23.0966 0.646134 25.2803 0.646134H31.5448C33.5954 0.646134 34.3976 1.22534 34.3976 3.43302V4.41395H37.4519V2.20746C37.4519 0.758857 38.5 0.000976562 39.6812 0.000976562C40.8624 0.000976562 41.9105 0.758857 41.9105 2.20746V12.0155H37.4519V7.89156H34.3976V11.5035V11.5023ZM38.7446 12.9293C41.5315 12.9293 42.0436 13.6872 42.0436 16.3626V20.9326H37.5407V16.9873C37.5407 16.6528 37.362 16.4525 37.0058 16.4525H24.9457C23.6974 16.4525 23.0066 15.739 23.0066 14.6909C23.0066 13.6428 23.6974 12.9293 24.9457 12.9293H38.7446ZM26.4615 7.80163C26.4615 8.11341 26.5958 8.2693 26.9519 8.2693H30.2952V4.30123C30.2952 4.01103 30.1837 3.85513 29.8719 3.85513H26.8848C26.573 3.85513 26.4615 4.03381 26.4615 4.30123V7.80163Z" fill="black" fill-opacity="0.12"/>
<path id="Vector_3" d="M47.3269 10.6775C45.4322 10.6775 44.6743 9.74092 44.6743 8.09205V2.58543C44.6743 1.22556 45.678 0.556418 46.8808 0.556418C48.0836 0.556418 49.0429 1.24714 49.0429 2.49549V6.75377C49.0429 7.10992 49.1772 7.22145 49.5334 7.22145H56.1984C57.4911 7.22145 57.8701 8.09085 57.8701 8.93747C57.8701 9.78409 57.4683 10.6763 56.1984 10.6763H47.3257L47.3269 10.6775ZM59.0081 12.0373C62.2854 12.0373 64.0015 13.8877 64.0015 16.5187C64.0015 19.1497 62.2854 21 59.0081 21H50.314C47.0151 21 45.3207 19.0825 45.3207 16.5187C45.3207 13.9548 47.0151 12.0373 50.314 12.0373H59.0081ZM57.8713 17.9013C58.9853 17.9013 59.4758 17.255 59.4758 16.5187C59.4758 15.7824 58.9853 15.136 57.8713 15.136H51.4737C50.3368 15.136 49.8464 15.7824 49.8464 16.5187C49.8464 17.255 50.3368 17.9013 51.4737 17.9013H57.8713ZM64.2245 6.62066C65.5844 6.62066 65.9861 7.51285 65.9861 8.40384C65.9861 9.29483 65.5628 10.1654 64.2245 10.1654H63.6453V11.4581H59.1868V2.20649C59.1868 0.75788 60.2348 0 61.416 0C62.5301 0 63.511 0.669141 63.6225 1.93907H64.2245C65.5844 1.93907 65.9861 2.83126 65.9861 3.72225C65.9861 4.61324 65.5628 5.48384 64.2245 5.48384H63.6453V6.62066H64.2245Z" fill="black" fill-opacity="0.12"/>
</g>
</svg>
