<svg width="12" height="12" viewBox="0 0 12 12" fill="none" xmlns="http://www.w3.org/2000/svg">
<g id="accessibility">
<path id="Vector" d="M6 1C6.55 1 7 1.45 7 2C7 2.55 6.55 3 6 3C5.45 3 5 2.55 5 2C5 1.45 5.45 1 6 1ZM10 4.5H7.5V10.5C7.5 10.775 7.275 11 7 11C6.725 11 6.5 10.775 6.5 10.5V8H5.5V10.5C5.5 10.775 5.275 11 5 11C4.725 11 4.5 10.775 4.5 10.5V4.5H2C1.725 4.5 1.5 4.275 1.5 4C1.5 3.725 1.725 3.5 2 3.5H10C10.275 3.5 10.5 3.725 10.5 4C10.5 4.275 10.275 4.5 10 4.5Z" fill="#FFAD6E"/>
</g>
</svg>
