<svg width="12" height="12" viewBox="0 0 12 12" fill="none" xmlns="http://www.w3.org/2000/svg">
<g id="confirmation_number">
<path id="Vector" d="M11 4.27V3C11 2.45 10.55 2 10 2H2C1.45 2 1.005 2.445 1.005 3V4.27C1.005 4.615 1.17 4.955 1.475 5.115C1.79 5.29 2 5.62 2 6C2 6.38 1.785 6.715 1.47 6.88C1.17 7.045 1 7.385 1 7.73V9C1 9.55 1.45 10 2 10H10C10.55 10 11 9.55 11 9V7.73C11 7.385 10.83 7.045 10.53 6.88C10.215 6.71 10 6.38 10 6C10 5.62 10.215 5.29 10.53 5.12C10.83 4.955 11 4.615 11 4.27ZM6.5 8.75H5.5V7.75H6.5V8.75ZM6.5 6.5H5.5V5.5H6.5V6.5ZM6.5 4.25H5.5V3.25H6.5V4.25Z" fill="#0088FF"/>
</g>
</svg>
