<svg width="12" height="12" viewBox="0 0 12 12" fill="none" xmlns="http://www.w3.org/2000/svg">
<g id="local_dining">
<path id="Vector" d="M3.89961 6.66583L5.31461 5.25083L2.21961 2.16083C1.97961 1.92083 1.56461 1.98583 1.41461 2.29583C1.05961 3.04083 1.18961 3.95583 1.80461 4.57583L3.89961 6.66583ZM7.28961 5.76083C8.05461 6.11583 9.12961 5.86583 9.92461 5.07083C10.8796 4.11583 11.0646 2.74583 10.3296 2.01083C9.59961 1.28083 8.22961 1.46083 7.26961 2.41583C6.47461 3.21083 6.22461 4.28583 6.57961 5.05083L2.05461 9.57583C1.85961 9.77083 1.85961 10.0858 2.05461 10.2808C2.24961 10.4758 2.56461 10.4758 2.75961 10.2808L5.84961 7.20083L8.93961 10.2908C9.13461 10.4858 9.44961 10.4858 9.64461 10.2908C9.83961 10.0958 9.83961 9.78083 9.64461 9.58583L6.55461 6.49583L7.28961 5.76083Z" fill="#FF6F00"/>
</g>
</svg>
