<svg width="12" height="12" viewBox="0 0 12 12" fill="none" xmlns="http://www.w3.org/2000/svg">
<path d="M6.5 2.625C7.05 2.625 7.5 2.175 7.5 1.625C7.5 1.075 7.05 0.625 6.5 0.625C5.95 0.625 5.5 1.075 5.5 1.625C5.5 2.175 5.95 2.625 6.5 2.625ZM4.65 4.325L3.37 10.78C3.305 11.085 3.545 11.375 3.86 11.375H3.9C4.135 11.375 4.335 11.215 4.39 10.985L5.2 7.375L6.25 8.375V10.875C6.25 11.15 6.475 11.375 6.75 11.375C7.025 11.375 7.25 11.15 7.25 10.875V8.055C7.25 7.78 7.14 7.52 6.94 7.33L6.2 6.625L6.5 5.125C7.035 5.745 7.81 6.19 8.68 6.33C8.98 6.375 9.25 6.135 9.25 5.83C9.25 5.585 9.07 5.38 8.825 5.34C8.065 5.215 7.435 4.765 7.1 4.175L6.6 3.375C6.32 2.93 5.76 2.75 5.275 2.955L3.36 3.765C2.99 3.925 2.75 4.285 2.75 4.69V5.875C2.75 6.15 2.975 6.375 3.25 6.375C3.525 6.375 3.75 6.15 3.75 5.875V4.675L4.65 4.325Z" fill="#FF6F00"/>
</svg>
