<svg width="16" height="16" viewBox="0 0 16 16" fill="none" xmlns="http://www.w3.org/2000/svg">
<path d="M8.00016 1.3335C4.32016 1.3335 1.3335 4.32016 1.3335 8.00016C1.3335 11.6802 4.32016 14.6668 8.00016 14.6668C11.6802 14.6668 14.6668 11.6802 14.6668 8.00016C14.6668 4.32016 11.6802 1.3335 8.00016 1.3335ZM8.58683 11.8402V12.6668H7.42016V11.8068C6.92683 11.6868 5.82683 11.2935 5.40683 9.8335L6.50683 9.38683C6.54683 9.5335 6.8935 10.7802 8.10683 10.7802C8.72683 10.7802 9.42683 10.4602 9.42683 9.70683C9.42683 9.06683 8.96016 8.7335 7.90683 8.3535C7.1735 8.0935 5.6735 7.66683 5.6735 6.14683C5.6735 6.08016 5.68016 4.54683 7.42016 4.1735V3.3335H8.58683V4.16016C9.8135 4.3735 10.2602 5.3535 10.3602 5.64683L9.30683 6.0935C9.2335 5.86016 8.9135 5.20016 8.04016 5.20016C7.5735 5.20016 6.8335 5.44683 6.8335 6.12683C6.8335 6.76016 7.40683 7.00016 8.5935 7.3935C10.1935 7.94683 10.6002 8.76016 10.6002 9.6935C10.6002 11.4468 8.9335 11.7802 8.58683 11.8402Z" fill="black" fill-opacity="0.4"/>
</svg>
