<svg width="12" height="12" viewBox="0 0 12 12" fill="none" xmlns="http://www.w3.org/2000/svg">
<g id="edit_note">
<path id="Vector" d="M6.9668 4.75C6.9668 5.025 6.7418 5.25 6.4668 5.25H1.9668C1.6918 5.25 1.4668 5.025 1.4668 4.75C1.4668 4.475 1.6918 4.25 1.9668 4.25H6.4668C6.7418 4.25 6.9668 4.475 6.9668 4.75ZM1.4668 2.75C1.4668 3.025 1.6918 3.25 1.9668 3.25H6.4668C6.7418 3.25 6.9668 3.025 6.9668 2.75C6.9668 2.475 6.7418 2.25 6.4668 2.25H1.9668C1.6918 2.25 1.4668 2.475 1.4668 2.75ZM4.9668 6.75C4.9668 6.475 4.7418 6.25 4.4668 6.25H1.9668C1.6918 6.25 1.4668 6.475 1.4668 6.75C1.4668 7.025 1.6918 7.25 1.9668 7.25H4.4668C4.7418 7.25 4.9668 7.025 4.9668 6.75ZM8.9718 5.685L9.3268 5.33C9.5218 5.135 9.8368 5.135 10.0318 5.33L10.3868 5.685C10.5818 5.88 10.5818 6.195 10.3868 6.39L10.0318 6.745L8.9718 5.685ZM8.6168 6.04L6.0368 8.62C5.9918 8.665 5.9668 8.725 5.9668 8.795V9.5C5.9668 9.64 6.0768 9.75 6.2168 9.75H6.9218C6.9868 9.75 7.0518 9.725 7.0968 9.675L9.6768 7.095L8.6168 6.04Z" fill="black" fill-opacity="0.4"/>
</g>
</svg>
