<svg width="335" height="458" viewBox="0 0 335 458" fill="none" xmlns="http://www.w3.org/2000/svg">
<rect width="335" height="458" rx="5" fill="#E2E2E2"/>
<path d="M146.191 240.535C142.978 240.535 140.171 239.996 137.772 238.918C135.372 237.84 133.471 236.366 132.068 234.495C130.685 232.604 129.882 230.438 129.658 227.998L129.628 227.601H137.131L137.192 227.937C137.335 229.137 137.792 230.204 138.565 231.14C139.338 232.055 140.375 232.777 141.676 233.305C142.978 233.834 144.482 234.098 146.191 234.098C147.899 234.098 149.383 233.814 150.644 233.244C151.925 232.655 152.911 231.851 153.603 230.835C154.314 229.818 154.67 228.638 154.67 227.296V227.235C154.67 224.917 153.867 223.138 152.261 221.897C150.674 220.657 148.468 220.037 145.642 220.037H140.426V214.18H145.458C147.085 214.18 148.499 213.896 149.698 213.326C150.918 212.757 151.864 211.984 152.535 211.008C153.227 210.011 153.572 208.873 153.572 207.592V207.531C153.572 206.188 153.277 205.06 152.688 204.145C152.098 203.209 151.244 202.498 150.125 202.01C149.027 201.501 147.695 201.247 146.13 201.247C144.584 201.247 143.211 201.501 142.012 202.01C140.832 202.518 139.887 203.24 139.175 204.175C138.463 205.09 138.036 206.178 137.894 207.439L137.863 207.744H130.573L130.604 207.378C130.827 204.897 131.6 202.732 132.922 200.881C134.264 199.031 136.064 197.587 138.321 196.55C140.578 195.513 143.181 194.994 146.13 194.994C149.159 194.994 151.793 195.482 154.03 196.458C156.287 197.414 158.026 198.756 159.246 200.484C160.486 202.193 161.106 204.196 161.106 206.494V206.555C161.106 208.364 160.7 209.971 159.886 211.374C159.073 212.757 157.965 213.906 156.561 214.821C155.179 215.736 153.613 216.376 151.864 216.742V216.895C155.118 217.2 157.731 218.278 159.703 220.128C161.676 221.958 162.662 224.399 162.662 227.449V227.51C162.662 230.052 161.96 232.309 160.557 234.281C159.175 236.234 157.253 237.769 154.792 238.887C152.332 239.985 149.465 240.535 146.191 240.535ZM169.495 239.772V195.757H185.57C189.962 195.757 193.714 196.611 196.825 198.319C199.936 200.027 202.326 202.508 203.993 205.761C205.661 209.015 206.494 212.96 206.494 217.597V217.658C206.494 222.294 205.661 226.269 203.993 229.584C202.346 232.878 199.957 235.4 196.825 237.149C193.714 238.898 189.962 239.772 185.57 239.772H169.495ZM177.364 233.153H184.746C187.715 233.153 190.216 232.563 192.25 231.384C194.283 230.184 195.829 228.445 196.886 226.168C197.943 223.87 198.472 221.043 198.472 217.688V217.627C198.472 214.353 197.933 211.577 196.856 209.3C195.798 207.022 194.242 205.304 192.189 204.145C190.155 202.965 187.674 202.376 184.746 202.376H177.364V233.153Z" fill="black" fill-opacity="0.2"/>
</svg>