<svg width="335" height="327" viewBox="0 0 335 327" fill="none" xmlns="http://www.w3.org/2000/svg">
<rect width="335" height="327" rx="5" fill="#E2E2E2"/>
<path d="M146.191 189.973C142.978 189.973 140.171 189.434 137.772 188.356C135.372 187.279 133.471 185.804 132.068 183.934C130.685 182.042 129.882 179.877 129.658 177.437L129.628 177.04H137.131L137.192 177.376C137.335 178.575 137.792 179.643 138.565 180.578C139.338 181.493 140.375 182.215 141.676 182.744C142.978 183.273 144.482 183.537 146.191 183.537C147.899 183.537 149.383 183.252 150.644 182.683C151.925 182.093 152.911 181.29 153.603 180.273C154.314 179.257 154.67 178.077 154.67 176.735V176.674C154.67 174.356 153.867 172.576 152.261 171.336C150.674 170.096 148.468 169.475 145.642 169.475H140.426V163.619H145.458C147.085 163.619 148.499 163.334 149.698 162.765C150.918 162.195 151.864 161.423 152.535 160.447C153.227 159.45 153.572 158.311 153.572 157.03V156.969C153.572 155.627 153.277 154.498 152.688 153.583C152.098 152.648 151.244 151.936 150.125 151.448C149.027 150.94 147.695 150.686 146.13 150.686C144.584 150.686 143.211 150.94 142.012 151.448C140.832 151.957 139.887 152.678 139.175 153.614C138.463 154.529 138.036 155.617 137.894 156.878L137.863 157.183H130.573L130.604 156.817C130.827 154.336 131.6 152.17 132.922 150.32C134.264 148.469 136.064 147.025 138.321 145.988C140.578 144.951 143.181 144.433 146.13 144.433C149.159 144.433 151.793 144.921 154.03 145.897C156.287 146.852 158.026 148.195 159.246 149.923C160.486 151.631 161.106 153.634 161.106 155.932V155.993C161.106 157.803 160.7 159.409 159.886 160.813C159.073 162.195 157.965 163.344 156.561 164.259C155.179 165.174 153.613 165.815 151.864 166.181V166.334C155.118 166.639 157.731 167.716 159.703 169.567C161.676 171.397 162.662 173.837 162.662 176.887V176.948C162.662 179.49 161.96 181.748 160.557 183.72C159.175 185.672 157.253 187.208 154.792 188.326C152.332 189.424 149.465 189.973 146.191 189.973ZM169.495 189.211V145.195H185.57C189.962 145.195 193.714 146.049 196.825 147.757C199.936 149.466 202.326 151.946 203.993 155.2C205.661 158.454 206.494 162.399 206.494 167.035V167.096C206.494 171.733 205.661 175.708 203.993 179.023C202.346 182.317 199.957 184.839 196.825 186.587C193.714 188.336 189.962 189.211 185.57 189.211H169.495ZM177.364 182.591H184.746C187.715 182.591 190.216 182.002 192.25 180.822C194.283 179.623 195.829 177.884 196.886 175.606C197.943 173.308 198.472 170.482 198.472 167.127V167.066C198.472 163.792 197.933 161.016 196.856 158.738C195.798 156.461 194.242 154.743 192.189 153.583C190.155 152.404 187.674 151.814 184.746 151.814H177.364V182.591Z" fill="black" fill-opacity="0.2"/>
</svg>
