<svg width="10" height="10" viewBox="0 0 10 10" fill="none" xmlns="http://www.w3.org/2000/svg">
<g id="location_on">
<path id="icon" d="M5.00016 9.16683C4.90294 9.16683 4.81961 9.13905 4.75016 9.0835C4.68072 9.02794 4.62864 8.95502 4.59391 8.86475C4.46197 8.47586 4.2953 8.11127 4.09391 7.771C3.89947 7.43072 3.62516 7.03141 3.271 6.57308C2.91683 6.11475 2.62864 5.67725 2.40641 5.26058C2.19113 4.84391 2.0835 4.34044 2.0835 3.75016C2.0835 2.93766 2.36475 2.25016 2.92725 1.68766C3.49669 1.11822 4.18766 0.833496 5.00016 0.833496C5.81266 0.833496 6.50016 1.11822 7.06266 1.68766C7.63211 2.25016 7.91683 2.93766 7.91683 3.75016C7.91683 4.38211 7.7953 4.90988 7.55225 5.3335C7.31614 5.75016 7.04183 6.16336 6.72933 6.57308C6.35433 7.07308 6.06961 7.48975 5.87516 7.82308C5.68766 8.14947 5.53141 8.49669 5.40641 8.86475C5.37169 8.96197 5.31614 9.03836 5.23975 9.09391C5.1703 9.14252 5.09044 9.16683 5.00016 9.16683ZM5.00016 4.79183C5.29183 4.79183 5.53836 4.69113 5.73975 4.48975C5.94113 4.28836 6.04183 4.04183 6.04183 3.75016C6.04183 3.4585 5.94113 3.21197 5.73975 3.01058C5.53836 2.80919 5.29183 2.7085 5.00016 2.7085C4.7085 2.7085 4.46197 2.80919 4.26058 3.01058C4.05919 3.21197 3.9585 3.4585 3.9585 3.75016C3.9585 4.04183 4.05919 4.28836 4.26058 4.48975C4.46197 4.69113 4.7085 4.79183 5.00016 4.79183Z" fill="white"/>
</g>
</svg>
