<svg width="128" height="41" viewBox="0 0 128 41" fill="none" xmlns="http://www.w3.org/2000/svg">
<path d="M38.0539 4.28016V40.6033H29.4052V23.4362H23.5246V38.9611H6.61564C1.03747 38.9611 0 37.2746 0 31.8267V8.56264C0 3.11242 1.03747 1.42594 6.61564 1.42594H16.9066C22.4848 1.42594 23.5223 3.11242 23.5223 8.56032V16.0413H29.4028V4.28016C29.4028 1.47014 31.4359 0 33.7272 0C36.0185 0 38.0515 1.47014 38.0515 4.28016H38.0539ZM15.1783 32.1733V9.64431C15.1783 8.77898 14.9619 8.21837 14.0105 8.21837H9.46985C8.51845 8.21837 8.34631 8.7813 8.34631 9.64431V30.7032C8.34631 31.6546 8.64871 32.1733 9.77225 32.1733H15.1783Z" fill="white"/>
<path d="M66.7238 22.3125H49.0379C44.7996 22.3125 43.2876 21.2309 43.2876 17.2089V6.39917C43.2876 2.37722 44.8019 1.25368 49.0379 1.25368H61.1898C65.1676 1.25368 66.7238 2.37722 66.7238 6.6597V8.56251H72.6486V4.28236C72.6486 1.47234 74.6816 0.00219727 76.9729 0.00219727C79.2642 0.00219727 81.2973 1.47234 81.2973 4.28236V23.3081H72.6486V15.3084H66.7238V22.3148V22.3125ZM75.1562 25.0807C80.5622 25.0807 81.5555 26.5508 81.5555 31.7405V40.6055H72.8207V32.9524C72.8207 32.3034 72.4741 31.915 71.7832 31.915H48.3889C45.9674 31.915 44.6275 30.5309 44.6275 28.4978C44.6275 26.4647 45.9674 25.0807 48.3889 25.0807H75.1562ZM51.3292 15.134C51.3292 15.7388 51.5897 16.0412 52.2806 16.0412H58.766V8.34385C58.766 7.78092 58.5496 7.47852 57.9448 7.47852H52.1503C51.5455 7.47852 51.3292 7.82512 51.3292 8.34385V15.134Z" fill="white"/>
<path d="M91.8047 20.7122C88.1293 20.7122 86.6592 18.8955 86.6592 15.697V5.01523C86.6592 2.37735 88.6062 1.07934 90.9393 1.07934C93.2725 1.07934 95.1334 2.41922 95.1334 4.84077V13.101C95.1334 13.7919 95.394 14.0082 96.0848 14.0082H109.014C111.521 14.0082 112.256 15.6947 112.256 17.337C112.256 18.9792 111.477 20.7099 109.014 20.7099H91.8023L91.8047 20.7122ZM114.464 23.3501C120.821 23.3501 124.15 26.9394 124.15 32.043C124.15 37.1467 120.821 40.7359 114.464 40.7359H97.5992C91.1999 40.7359 87.913 37.0164 87.913 32.043C87.913 27.0697 91.1999 23.3501 97.5992 23.3501H114.464ZM112.259 34.7251C114.42 34.7251 115.371 33.4713 115.371 32.043C115.371 30.6148 114.42 29.361 112.259 29.361H99.8486C97.6434 29.361 96.692 30.6148 96.692 32.043C96.692 33.4713 97.6434 34.7251 99.8486 34.7251H112.259ZM124.583 12.8428C127.221 12.8428 128 14.5735 128 16.3018C128 18.0302 127.179 19.719 124.583 19.719H123.459V22.2266H114.811V4.28016C114.811 1.47014 116.844 0 119.135 0C121.296 0 123.199 1.298 123.415 3.76142H124.583C127.221 3.76142 128 5.49209 128 7.22044C128 8.94879 127.179 10.6376 124.583 10.6376H123.459V12.8428H124.583Z" fill="white"/>
</svg>