<svg width="193" height="46" viewBox="0 0 193 46" fill="none" xmlns="http://www.w3.org/2000/svg">
<g clip-path="url(#clip0_600_2762)">
<path d="M95.4572 4.92895V44.3198H86.0807V26.8207C86.0807 26.2055 85.5839 25.7008 84.9609 25.7008H80.8207C80.2056 25.7008 79.7009 26.1977 79.7009 26.8207V42.5376H61.3658C55.3172 42.5376 54.1895 40.708 54.1895 34.8013V9.57384C54.1895 3.66718 55.3172 1.83761 61.3658 1.83761H72.5245C78.5732 1.83761 79.7009 3.66718 79.7009 9.57384V16.5688C79.7009 17.1839 80.1977 17.6886 80.8207 17.6886H84.9609C85.576 17.6886 86.0807 17.1918 86.0807 16.5688V4.92895C86.0807 1.87704 88.2888 0.284058 90.7729 0.284058C93.257 0.284058 95.4651 1.87704 95.4651 4.92895H95.4572ZM70.6477 35.1799V10.7489C70.6477 9.81042 70.4111 9.20319 69.378 9.20319H64.4571C63.424 9.20319 63.2348 9.81042 63.2348 10.7489V33.5869C63.2348 34.62 63.566 35.1799 64.7804 35.1799H70.6398H70.6477Z" fill="white"/>
<path d="M126.552 24.4863H107.373C102.776 24.4863 101.135 23.3113 101.135 18.9503V7.22374C101.135 2.86275 102.776 1.64041 107.373 1.64041H120.551C124.864 1.64041 126.552 2.86275 126.552 7.49975V8.44608C126.552 9.06119 127.049 9.5659 127.672 9.5659H131.859C132.474 9.5659 132.979 9.06908 132.979 8.44608V4.92101C132.979 1.86911 135.187 0.276123 137.671 0.276123C140.155 0.276123 142.364 1.86911 142.364 4.92101V25.5588H132.987V18.004C132.987 17.3889 132.49 16.8842 131.867 16.8842H127.68C127.065 16.8842 126.56 17.381 126.56 18.004V24.4863H126.552ZM135.7 27.4909C141.559 27.4909 142.64 29.0839 142.64 34.7146V44.3277H133.168V36.0236C133.168 35.3218 132.79 34.8959 132.041 34.8959H106.671C104.045 34.8959 102.594 33.3976 102.594 31.1895C102.594 28.9814 104.045 27.483 106.671 27.483H135.7V27.4909ZM109.857 16.7028C109.857 17.3573 110.141 17.6885 110.89 17.6885H117.925V9.33721C117.925 8.72998 117.688 8.39877 117.034 8.39877H110.748C110.094 8.39877 109.857 8.7773 109.857 9.33721V16.7028Z" fill="white"/>
<path d="M153.751 22.7514C149.761 22.7514 148.168 20.7799 148.168 17.3101V5.73333C148.168 2.87069 150.281 1.46697 152.813 1.46697C155.344 1.46697 157.363 2.918 157.363 5.54406V14.5026C157.363 15.2518 157.647 15.4884 158.396 15.4884H172.418C175.138 15.4884 175.935 17.3179 175.935 19.1002C175.935 20.8824 175.091 22.7593 172.418 22.7593H153.751V22.7514ZM178.324 25.6141C185.217 25.6141 188.828 29.5098 188.828 35.0379C188.828 40.5661 185.217 44.4618 178.324 44.4618H160.036C153.097 44.4618 149.532 40.432 149.532 35.0379C149.532 29.6439 153.097 25.6141 160.036 25.6141H178.324ZM175.935 37.9479C178.277 37.9479 179.31 36.5915 179.31 35.0379C179.31 33.4844 178.277 32.128 175.935 32.128H162.473C160.084 32.128 159.051 33.4844 159.051 35.0379C159.051 36.5915 160.084 37.9479 162.473 37.9479H175.935ZM189.302 14.2187C192.164 14.2187 193.008 16.0956 193.008 17.9725C193.008 19.8494 192.117 21.6789 189.302 21.6789H188.079V24.3996H178.703V4.92895C178.703 1.87704 180.911 0.284058 183.395 0.284058C185.737 0.284058 187.803 1.68778 188.04 4.36115H189.31C192.172 4.36115 193.016 6.23803 193.016 8.11492C193.016 9.9918 192.125 11.8214 189.31 11.8214H188.087V14.2108H189.31L189.302 14.2187Z" fill="white"/>
<path d="M10.2327 5.77264C7.28335 7.7757 7.66188 12.9647 8.90788 15.8983C9.0656 16.269 9.39681 17.0103 10.0356 17.8541C11.3289 19.5732 13.2452 20.7562 15.2719 21.4107C16.8176 21.9075 19.6329 22.3176 19.8458 24.368C20.0351 26.166 18.0557 27.8615 17.0621 29.139C15.6978 30.9055 14.3808 32.8455 13.6947 34.9826C12.7168 38.0345 12.8982 42.2062 15.8949 44.0831C17.756 45.2503 20.1219 45.1793 22.2195 44.856C24.7904 44.4617 27.3455 43.8229 29.8769 43.2157C33.5991 42.3245 38.4727 41.5438 40.665 37.9951C43.0939 34.0678 41.1619 28.24 36.651 26.994C34.4035 26.371 32.7396 25.3064 31.115 23.6346C29.7113 22.1914 28.3786 20.6931 26.3045 20.2988C24.8141 20.0149 22.8268 20.4328 21.636 19.2657C20.5083 18.1695 21.7858 16.5923 21.5808 13.8322C21.3205 10.4018 18.9784 6.46662 15.4454 5.33891C14.7514 5.1181 12.2043 4.42413 10.2406 5.76476L10.2327 5.77264Z" fill="white"/>
<path d="M26.2889 0.3075C23.032 1.48252 21.6046 6.10376 22.0777 9.57362C22.7717 14.6365 27.7715 19.1079 30.8786 18.2641C34.5456 17.2625 35.4919 8.91119 33.5677 4.10858C32.6372 1.78219 31.2966 0.954157 30.9653 0.757006C29.4906 -0.102575 27.669 -0.189321 26.281 0.3075H26.2889Z" fill="white"/>
<path d="M39.3873 23.666C36.0594 22.4121 35.9253 17.1915 35.9096 16.395C35.8859 15.3541 35.7518 10.5357 39.0167 8.93483C41.351 7.78346 43.8508 9.02946 44.0874 9.14775C47.4232 10.8827 48.3538 15.5591 47.3128 18.8161C47.1078 19.4627 46.4453 21.4342 44.4502 22.7354C44.1111 22.9562 41.7058 24.5256 39.4031 23.6581L39.3873 23.666Z" fill="white"/>
<path d="M10.4301 20.6221C5.01239 15.646 2.07878 20.3304 2.07878 20.3304C2.07878 20.3304 -3.22854 27.4436 5.84831 32.4039C14.9252 37.3643 15.8478 25.5982 10.4222 20.6143L10.4301 20.6221ZM5.83254 26.5603C4.38939 26.5603 3.23014 25.3932 3.23014 23.9579C3.23014 22.5227 4.39728 21.3555 5.83254 21.3555C7.26781 21.3555 8.43494 22.5227 8.43494 23.9579C8.43494 25.3932 7.26781 26.5603 5.83254 26.5603Z" fill="white" fill-opacity="0.7"/>
</g>
<defs>
<clipPath id="clip0_600_2762">
<rect width="192.459" height="45.0688" fill="white" transform="translate(0.540527)"/>
</clipPath>
</defs>
</svg>
