<svg width="72" height="70" viewBox="0 0 72 70" fill="none" xmlns="http://www.w3.org/2000/svg">
<rect width="72" height="70" fill="#F5F5F5"/>
<path d="M-590 -690C-590 -691.105 -589.105 -692 -588 -692H5818C5819.1 -692 5820 -691.105 5820 -690V2247C5820 2248.1 5819.1 2249 5818 2249H-588C-589.104 2249 -590 2248.1 -590 2247V-690Z" fill="#40FF00" fill-opacity="0.1"/>
<path d="M-588 -691H5818V-693H-588V-691ZM5819 -690V2247H5821V-690H5819ZM5818 2248H-588V2250H5818V2248ZM-589 2247V-690H-591V2247H-589ZM-588 2248C-588.552 2248 -589 2247.55 -589 2247H-591C-591 2248.66 -589.657 2250 -588 2250V2248ZM5819 2247C5819 2247.55 5818.55 2248 5818 2248V2250C5819.66 2250 5821 2248.66 5821 2247H5819ZM5818 -691C5818.55 -691 5819 -690.552 5819 -690H5821C5821 -691.657 5819.66 -693 5818 -693V-691ZM-588 -693C-589.657 -693 -591 -691.657 -591 -690H-589C-589 -690.552 -588.552 -691 -588 -691V-693Z" fill="black" fill-opacity="0.1"/>
<g clip-path="url(#clip0_1_703)">
<rect width="375" height="812" transform="translate(-272 -407)" fill="#F0F0F3"/>
<g filter="url(#filter0_d_1_703)">
<rect x="-252" y="-48" width="335" height="128" rx="10" fill="white"/>
</g>
<g filter="url(#filter1_d_1_703)">
<path d="M17.1527 11.8255C13.152 14.5426 13.6654 21.5814 15.3556 25.5608C15.5695 26.0636 16.0188 27.0691 16.8853 28.2138C18.6397 30.5458 21.2391 32.1504 23.9883 33.0382C26.085 33.7122 29.9039 34.2684 30.1928 37.0497C30.4495 39.4887 27.7645 41.7886 26.4166 43.5216C24.566 45.9178 22.7795 48.5493 21.8489 51.4483C20.5224 55.5882 20.7684 61.247 24.8334 63.793C27.358 65.3762 30.5672 65.2799 33.4126 64.8413C36.9 64.3065 40.3659 63.44 43.7997 62.6163C48.8489 61.4075 55.4598 60.3485 58.4336 55.5347C61.7284 50.2074 59.1076 42.3021 52.9887 40.6119C49.94 39.7668 47.6829 38.3227 45.4792 36.0549C43.5751 34.0973 41.7672 32.0648 38.9538 31.5299C36.9321 31.1448 34.2363 31.7118 32.621 30.1286C31.0913 28.6416 32.8243 26.5022 32.5462 22.7581C32.1932 18.1048 29.0161 12.7668 24.2237 11.2371C23.2823 10.9376 19.8271 9.99624 17.1634 11.8148L17.1527 11.8255Z" fill="#D5D0CD"/>
<path d="M38.9325 4.41232C34.5145 6.00622 32.5783 12.2748 33.2201 16.9817C34.1615 23.8493 40.9436 29.9147 45.1583 28.7701C50.1326 27.4115 51.4163 16.0831 48.8061 9.56842C47.5438 6.41271 45.7253 5.2895 45.276 5.02206C43.2756 3.85606 40.8045 3.73839 38.9218 4.41232H38.9325Z" fill="#D5D0CD"/>
<path d="M56.7005 36.098C52.1862 34.3971 52.0043 27.3155 51.9829 26.2351C51.9508 24.823 51.769 18.287 56.1977 16.1154C59.3641 14.5536 62.7551 16.2438 63.0761 16.4042C67.601 18.7576 68.8633 25.1011 67.4512 29.5191C67.1731 30.3963 66.2745 33.0706 63.5681 34.8357C63.1081 35.1352 59.8455 37.264 56.7218 36.0873L56.7005 36.098Z" fill="#D5D0CD"/>
<path d="M17.4204 31.9685C10.0713 25.2185 6.09191 31.5727 6.09191 31.5727C6.09191 31.5727 -1.10738 41.2216 11.2052 47.9502C23.5178 54.6789 24.7694 38.7185 17.4097 31.9578L17.4204 31.9685ZM11.1838 40.0235C9.22622 40.0235 7.65371 38.4403 7.65371 36.4934C7.65371 34.5465 9.23692 32.9633 11.1838 32.9633C13.1307 32.9633 14.7139 34.5465 14.7139 36.4934C14.7139 38.4403 13.1307 40.0235 11.1838 40.0235Z" fill="#D5D0CD" fill-opacity="0.7"/>
</g>
</g>
<path d="M81 -180.5C81 -176.082 84.5817 -172.5 89 -172.5C93.4183 -172.5 97 -176.082 97 -180.5C97 -184.918 93.4183 -188.5 89 -188.5C84.5817 -188.5 81 -184.918 81 -180.5ZM149.824 -180.5L151.323 -180.482L151.342 -182H149.824V-180.5ZM132 1295.5V1297H133.482L133.5 1295.52L132 1295.5ZM-103 1295.5V1294H-104.5V1295.5H-103ZM-104.061 1339.06C-103.475 1339.65 -102.525 1339.65 -101.939 1339.06L-92.3934 1329.51C-91.8076 1328.93 -91.8076 1327.98 -92.3934 1327.39C-92.9792 1326.81 -93.9289 1326.81 -94.5147 1327.39L-103 1335.88L-111.485 1327.39C-112.071 1326.81 -113.021 1326.81 -113.607 1327.39C-114.192 1327.98 -114.192 1328.93 -113.607 1329.51L-104.061 1339.06ZM89 -179H149.824V-182H89V-179ZM148.324 -180.518L130.5 1295.48L133.5 1295.52L151.323 -180.482L148.324 -180.518ZM132 1294H-103V1297H132V1294ZM-104.5 1295.5V1338H-101.5V1295.5H-104.5Z" fill="#40FF00"/>
<defs>
<filter id="filter0_d_1_703" x="-261" y="-57" width="353" height="146" filterUnits="userSpaceOnUse" color-interpolation-filters="sRGB">
<feFlood flood-opacity="0" result="BackgroundImageFix"/>
<feColorMatrix in="SourceAlpha" type="matrix" values="0 0 0 0 0 0 0 0 0 0 0 0 0 0 0 0 0 0 127 0" result="hardAlpha"/>
<feMorphology radius="2" operator="dilate" in="SourceAlpha" result="effect1_dropShadow_1_703"/>
<feOffset/>
<feGaussianBlur stdDeviation="3.5"/>
<feColorMatrix type="matrix" values="0 0 0 0 0 0 0 0 0 0 0 0 0 0 0 0 0 0 0.05 0"/>
<feBlend mode="normal" in2="BackgroundImageFix" result="effect1_dropShadow_1_703"/>
<feBlend mode="normal" in="SourceGraphic" in2="effect1_dropShadow_1_703" result="shape"/>
</filter>
<filter id="filter1_d_1_703" x="0" y="0" width="72" height="69.1196" filterUnits="userSpaceOnUse" color-interpolation-filters="sRGB">
<feFlood flood-opacity="0" result="BackgroundImageFix"/>
<feColorMatrix in="SourceAlpha" type="matrix" values="0 0 0 0 0 0 0 0 0 0 0 0 0 0 0 0 0 0 127 0" result="hardAlpha"/>
<feOffset/>
<feGaussianBlur stdDeviation="2"/>
<feComposite in2="hardAlpha" operator="out"/>
<feColorMatrix type="matrix" values="0 0 0 0 0.835294 0 0 0 0 0.815686 0 0 0 0 0.803922 0 0 0 0.2 0"/>
<feBlend mode="normal" in2="BackgroundImageFix" result="effect1_dropShadow_1_703"/>
<feBlend mode="normal" in="SourceGraphic" in2="effect1_dropShadow_1_703" result="shape"/>
</filter>
<clipPath id="clip0_1_703">
<rect width="375" height="812" fill="white" transform="translate(-272 -407)"/>
</clipPath>
</defs>
</svg>
