<svg width="56" height="56" viewBox="0 0 56 56" fill="none" xmlns="http://www.w3.org/2000/svg">
<g id="image">
<path id="Vector" d="M49 44.3333V11.6667C49 9.1 46.9 7 44.3333 7H11.6667C9.1 7 7 9.1 7 11.6667V44.3333C7 46.9 9.1 49 11.6667 49H44.3333C46.9 49 49 46.9 49 44.3333ZM20.7667 32.62L25.6667 38.5233L32.9 29.2133C33.3667 28.6067 34.3 28.6067 34.7667 29.2367L42.9567 40.1567C43.54 40.9267 42.98 42.0233 42.0233 42.0233H14.0467C13.0667 42.0233 12.53 40.9033 13.1367 40.1333L18.9467 32.6667C19.39 32.06 20.2767 32.0367 20.7667 32.62Z" fill="black" fill-opacity="0.2"/>
</g>
</svg>
