<svg width="10" height="10" viewBox="0 0 10 10" fill="none" xmlns="http://www.w3.org/2000/svg">
<g id="paid" clip-path="url(#clip0_433_1975)">
<path id="Vector" d="M5.00016 0.833496C2.70016 0.833496 0.833496 2.70016 0.833496 5.00016C0.833496 7.30016 2.70016 9.16683 5.00016 9.16683C7.30016 9.16683 9.16683 7.30016 9.16683 5.00016C9.16683 2.70016 7.30016 0.833496 5.00016 0.833496ZM5.36683 7.40016V7.91683H4.63766V7.37933C4.32933 7.30433 3.64183 7.0585 3.37933 6.146L4.06683 5.86683C4.09183 5.9585 4.3085 6.73766 5.06683 6.73766C5.45433 6.73766 5.89183 6.53766 5.89183 6.06683C5.89183 5.66683 5.60016 5.4585 4.94183 5.221C4.4835 5.0585 3.546 4.79183 3.546 3.84183C3.546 3.80016 3.55016 2.84183 4.63766 2.6085V2.0835H5.36683V2.60016C6.1335 2.7335 6.41266 3.346 6.47516 3.52933L5.81683 3.8085C5.771 3.66266 5.571 3.25016 5.02516 3.25016C4.7335 3.25016 4.271 3.40433 4.271 3.82933C4.271 4.22516 4.62933 4.37516 5.371 4.621C6.371 4.96683 6.62516 5.47516 6.62516 6.0585C6.62516 7.15433 5.5835 7.36266 5.36683 7.40016Z" fill="white"/>
</g>
<defs>
<clipPath id="clip0_433_1975">
<rect width="10" height="10" fill="white"/>
</clipPath>
</defs>
</svg>
