<svg width="12" height="12" viewBox="0 0 12 12" fill="none" xmlns="http://www.w3.org/2000/svg">
<g id="chat">
<path id="Vector" d="M10 1H2C1.45 1 1.005 1.45 1.005 2L1 11L3 9H10C10.55 9 11 8.55 11 8V2C11 1.45 10.55 1 10 1ZM3.5 4.5H8.5C8.775 4.5 9 4.725 9 5C9 5.275 8.775 5.5 8.5 5.5H3.5C3.225 5.5 3 5.275 3 5C3 4.725 3.225 4.5 3.5 4.5ZM6.5 7H3.5C3.225 7 3 6.775 3 6.5C3 6.225 3.225 6 3.5 6H6.5C6.775 6 7 6.225 7 6.5C7 6.775 6.775 7 6.5 7ZM8.5 4H3.5C3.225 4 3 3.775 3 3.5C3 3.225 3.225 3 3.5 3H8.5C8.775 3 9 3.225 9 3.5C9 3.775 8.775 4 8.5 4Z" fill="black" fill-opacity="0.4"/>
</g>
</svg>
