<svg width="72" height="70" viewBox="0 0 72 70" fill="none" xmlns="http://www.w3.org/2000/svg">
<rect width="72" height="70" fill="#F5F5F5"/>
<path d="M-591 -546C-591 -547.105 -590.105 -548 -589 -548H5817C5818.1 -548 5819 -547.105 5819 -546V2391C5819 2392.1 5818.1 2393 5817 2393H-589C-590.104 2393 -591 2392.1 -591 2391V-546Z" fill="#40FF00" fill-opacity="0.1"/>
<path d="M-589 -547H5817V-549H-589V-547ZM5818 -546V2391H5820V-546H5818ZM5817 2392H-589V2394H5817V2392ZM-590 2391V-546H-592V2391H-590ZM-589 2392C-589.552 2392 -590 2391.55 -590 2391H-592C-592 2392.66 -590.657 2394 -589 2394V2392ZM5818 2391C5818 2391.55 5817.55 2392 5817 2392V2394C5818.66 2394 5820 2392.66 5820 2391H5818ZM5817 -547C5817.55 -547 5818 -546.552 5818 -546H5820C5820 -547.657 5818.66 -549 5817 -549V-547ZM-589 -549C-590.657 -549 -592 -547.657 -592 -546H-590C-590 -546.552 -589.552 -547 -589 -547V-549Z" fill="black" fill-opacity="0.1"/>
<g clip-path="url(#clip0_1_703)">
<rect width="375" height="812" transform="translate(-273 -263)" fill="#F0F0F3"/>
<g filter="url(#filter0_d_1_703)">
<rect x="-253" y="-48" width="335" height="128" rx="10" fill="white"/>
</g>
<g filter="url(#filter1_d_1_703)">
<path d="M17.1527 11.8255C13.152 14.5426 13.6654 21.5814 15.3556 25.5608C15.5695 26.0636 16.0188 27.0691 16.8853 28.2138C18.6397 30.5458 21.2391 32.1504 23.9883 33.0382C26.085 33.7122 29.9039 34.2684 30.1928 37.0497C30.4495 39.4887 27.7645 41.7886 26.4166 43.5216C24.566 45.9178 22.7795 48.5493 21.8489 51.4483C20.5224 55.5882 20.7684 61.247 24.8334 63.793C27.358 65.3762 30.5672 65.2799 33.4126 64.8413C36.9 64.3065 40.3659 63.44 43.7997 62.6163C48.8489 61.4075 55.4598 60.3485 58.4336 55.5347C61.7284 50.2074 59.1076 42.3021 52.9887 40.6119C49.94 39.7668 47.6829 38.3227 45.4792 36.0549C43.5751 34.0973 41.7672 32.0648 38.9538 31.5299C36.9321 31.1448 34.2363 31.7118 32.621 30.1286C31.0913 28.6416 32.8243 26.5022 32.5462 22.7581C32.1932 18.1048 29.0161 12.7668 24.2237 11.2371C23.2823 10.9376 19.8271 9.99624 17.1634 11.8148L17.1527 11.8255Z" fill="#FF6F00"/>
<path d="M38.9325 4.41232C34.5145 6.00622 32.5783 12.2748 33.2201 16.9817C34.1615 23.8493 40.9436 29.9147 45.1583 28.7701C50.1326 27.4115 51.4163 16.0831 48.8061 9.56842C47.5438 6.41271 45.7253 5.2895 45.276 5.02206C43.2756 3.85606 40.8045 3.73839 38.9218 4.41232H38.9325Z" fill="#FF6F00"/>
<path d="M56.7005 36.098C52.1862 34.3971 52.0043 27.3155 51.9829 26.2351C51.9508 24.823 51.769 18.287 56.1977 16.1154C59.3641 14.5536 62.7551 16.2438 63.0761 16.4042C67.601 18.7576 68.8633 25.1011 67.4512 29.5191C67.1731 30.3963 66.2745 33.0706 63.5681 34.8357C63.1081 35.1352 59.8455 37.264 56.7218 36.0873L56.7005 36.098Z" fill="#FF6F00"/>
<path d="M17.4204 31.9685C10.0713 25.2185 6.09191 31.5727 6.09191 31.5727C6.09191 31.5727 -1.10738 41.2216 11.2052 47.9502C23.5178 54.6789 24.7694 38.7185 17.4097 31.9578L17.4204 31.9685ZM11.1838 40.0235C9.22622 40.0235 7.65371 38.4403 7.65371 36.4934C7.65371 34.5465 9.23692 32.9633 11.1838 32.9633C13.1307 32.9633 14.7139 34.5465 14.7139 36.4934C14.7139 38.4403 13.1307 40.0235 11.1838 40.0235Z" fill="#FF6F00" fill-opacity="0.7"/>
</g>
</g>
<path d="M80 -36.5C80 -32.0817 83.5817 -28.5 88 -28.5C92.4183 -28.5 96 -32.0817 96 -36.5C96 -40.9183 92.4183 -44.5 88 -44.5C83.5817 -44.5 80 -40.9183 80 -36.5ZM148.824 -36.5L150.323 -36.4819L150.342 -38H148.824V-36.5ZM131 1439.5V1441H132.482L132.5 1439.52L131 1439.5ZM-104 1439.5V1438H-105.5V1439.5H-104ZM-105.061 1483.06C-104.475 1483.65 -103.525 1483.65 -102.939 1483.06L-93.3934 1473.51C-92.8076 1472.93 -92.8076 1471.98 -93.3934 1471.39C-93.9792 1470.81 -94.9289 1470.81 -95.5147 1471.39L-104 1479.88L-112.485 1471.39C-113.071 1470.81 -114.021 1470.81 -114.607 1471.39C-115.192 1471.98 -115.192 1472.93 -114.607 1473.51L-105.061 1483.06ZM88 -35H148.824V-38H88V-35ZM147.324 -36.5181L129.5 1439.48L132.5 1439.52L150.323 -36.4819L147.324 -36.5181ZM131 1438H-104V1441H131V1438ZM-105.5 1439.5V1482H-102.5V1439.5H-105.5Z" fill="#40FF00"/>
<defs>
<filter id="filter0_d_1_703" x="-262" y="-57" width="353" height="146" filterUnits="userSpaceOnUse" color-interpolation-filters="sRGB">
<feFlood flood-opacity="0" result="BackgroundImageFix"/>
<feColorMatrix in="SourceAlpha" type="matrix" values="0 0 0 0 0 0 0 0 0 0 0 0 0 0 0 0 0 0 127 0" result="hardAlpha"/>
<feMorphology radius="2" operator="dilate" in="SourceAlpha" result="effect1_dropShadow_1_703"/>
<feOffset/>
<feGaussianBlur stdDeviation="3.5"/>
<feColorMatrix type="matrix" values="0 0 0 0 0 0 0 0 0 0 0 0 0 0 0 0 0 0 0.05 0"/>
<feBlend mode="normal" in2="BackgroundImageFix" result="effect1_dropShadow_1_703"/>
<feBlend mode="normal" in="SourceGraphic" in2="effect1_dropShadow_1_703" result="shape"/>
</filter>
<filter id="filter1_d_1_703" x="0" y="0" width="72" height="69.1196" filterUnits="userSpaceOnUse" color-interpolation-filters="sRGB">
<feFlood flood-opacity="0" result="BackgroundImageFix"/>
<feColorMatrix in="SourceAlpha" type="matrix" values="0 0 0 0 0 0 0 0 0 0 0 0 0 0 0 0 0 0 127 0" result="hardAlpha"/>
<feOffset/>
<feGaussianBlur stdDeviation="2"/>
<feComposite in2="hardAlpha" operator="out"/>
<feColorMatrix type="matrix" values="0 0 0 0 1 0 0 0 0 0.433333 0 0 0 0 0 0 0 0 0.2 0"/>
<feBlend mode="normal" in2="BackgroundImageFix" result="effect1_dropShadow_1_703"/>
<feBlend mode="normal" in="SourceGraphic" in2="effect1_dropShadow_1_703" result="shape"/>
</filter>
<clipPath id="clip0_1_703">
<rect width="375" height="812" fill="white" transform="translate(-273 -263)"/>
</clipPath>
</defs>
</svg>
