<svg width="257" height="123" viewBox="0 0 257 123" fill="none" xmlns="http://www.w3.org/2000/svg">
<path d="M-4.40515e-07 78.2968L15.1167 69.5692L15.1167 87.0245L-4.40515e-07 78.2968Z" fill="#FF6F00"/>
<path d="M-4.40515e-07 95.3516L15.1167 86.624L15.1167 104.079L-4.40515e-07 95.3516Z" fill="#FF6F00"/>
<path d="M-4.40515e-07 61.242L15.1167 52.5144L15.1167 69.9697L-4.40515e-07 61.242Z" fill="#FF6F00"/>
<path d="M-4.40515e-07 27.1325L15.1167 18.4049L15.1167 35.8602L-4.40515e-07 27.1325Z" fill="#FF6F00"/>
<path d="M-4.40515e-07 112.406L15.1167 103.679L15.1167 121.134L-4.40515e-07 112.406Z" fill="#FF6F00"/>
<path d="M-4.40515e-07 44.1873L15.1167 35.4597L15.1167 52.915L-4.40515e-07 44.1873Z" fill="#FF6F00"/>
<path d="M-4.40515e-07 10.0778L15.1167 1.35019L15.1167 18.8055L-4.40515e-07 10.0778Z" fill="#FF6F00"/>
<path d="M257 78.2967L241.883 69.5691L241.883 87.0243L257 78.2967Z" fill="#FF6F00"/>
<path d="M257 95.3515L241.883 86.6239L241.883 104.079L257 95.3515Z" fill="#FF6F00"/>
<path d="M257 61.242L241.883 52.5144L241.883 69.9697L257 61.242Z" fill="#FF6F00"/>
<path d="M257 27.1324L241.883 18.4048L241.883 35.86L257 27.1324Z" fill="#FF6F00"/>
<path d="M257 112.406L241.883 103.679L241.883 121.134L257 112.406Z" fill="#FF6F00"/>
<path d="M257 44.1872L241.883 35.4596L241.883 52.9148L257 44.1872Z" fill="#FF6F00"/>
<path d="M257 10.0777L241.883 1.35007L241.883 18.8053L257 10.0777Z" fill="#FF6F00"/>
<rect x="14" y="0.999878" width="229" height="121" rx="1.55043" fill="#FF6F00"/>
</svg>
