<svg width="24" height="25" viewBox="0 0 24 25" fill="none" xmlns="http://www.w3.org/2000/svg">
<g id="search">
<path id="Vector" d="M15.9767 14.8239H15.1867L14.9067 14.5539C16.1067 13.1539 16.7267 11.2439 16.3867 9.21387C15.9167 6.43387 13.5967 4.21387 10.7967 3.87387C6.5667 3.35387 3.0067 6.91387 3.5267 11.1439C3.8667 13.9439 6.0867 16.2639 8.8667 16.7339C10.8967 17.0739 12.8067 16.4539 14.2067 15.2539L14.4767 15.5339V16.3239L18.7267 20.5739C19.1367 20.9839 19.8067 20.9839 20.2167 20.5739C20.6267 20.1639 20.6267 19.4939 20.2167 19.0839L15.9767 14.8239ZM9.9767 14.8239C7.4867 14.8239 5.4767 12.8139 5.4767 10.3239C5.4767 7.83387 7.4867 5.82387 9.9767 5.82387C12.4667 5.82387 14.4767 7.83387 14.4767 10.3239C14.4767 12.8139 12.4667 14.8239 9.9767 14.8239Z" fill="black" fill-opacity="0.2"/>
</g>
</svg>
