<svg width="164" height="39" viewBox="0 0 164 39" fill="none" xmlns="http://www.w3.org/2000/svg">
<g id="Layer_1" clip-path="url(#clip0_601_2935)">
<path id="Vector" d="M80.8812 4.20023V37.7663H72.8912V22.8548C72.8912 22.3306 72.4679 21.9005 71.937 21.9005H68.409C67.8849 21.9005 67.4548 22.3239 67.4548 22.8548V36.2476H51.831C46.6768 36.2476 45.7158 34.6886 45.7158 29.6553V8.15827C45.7158 3.12504 46.6768 1.56601 51.831 1.56601H61.3397C66.4939 1.56601 67.4548 3.12504 67.4548 8.15827V14.1189C67.4548 14.643 67.8782 15.0731 68.409 15.0731H71.937C72.4612 15.0731 72.8912 14.6497 72.8912 14.1189V4.20023C72.8912 1.59961 74.7728 0.242188 76.8896 0.242188C79.0064 0.242188 80.888 1.59961 80.888 4.20023H80.8812ZM59.7403 29.9779V9.15954C59.7403 8.35987 59.5387 7.84243 58.6584 7.84243H54.4652C53.5849 7.84243 53.4236 8.35987 53.4236 9.15954V28.6205C53.4236 29.5008 53.7058 29.9779 54.7407 29.9779H59.7336H59.7403Z" fill="#252525"/>
<path id="Vector_2" d="M107.378 20.8656H91.0352C87.1175 20.8656 85.7197 19.8643 85.7197 16.1482V6.15561C85.7197 2.43949 87.1175 1.3979 91.0352 1.3979H102.264C105.94 1.3979 107.378 2.43949 107.378 6.39081V7.1972C107.378 7.72136 107.801 8.15143 108.332 8.15143H111.901C112.425 8.15143 112.855 7.72808 112.855 7.1972V4.19339C112.855 1.59278 114.736 0.235352 116.853 0.235352C118.97 0.235352 120.852 1.59278 120.852 4.19339V21.7795H112.862V15.3418C112.862 14.8176 112.438 14.3875 111.907 14.3875H108.339C107.815 14.3875 107.385 14.8109 107.385 15.3418V20.8656H107.378ZM115.173 23.4258C120.166 23.4258 121.087 24.7833 121.087 29.5813V37.7729H113.016V30.6968C113.016 30.0987 112.694 29.7359 112.055 29.7359H90.4371C88.1994 29.7359 86.9629 28.4591 86.9629 26.5775C86.9629 24.6959 88.1994 23.4191 90.4371 23.4191H115.173V23.4258ZM93.152 14.233C93.152 14.7907 93.3939 15.073 94.0323 15.073H100.026V7.95656C100.026 7.43912 99.8249 7.15688 99.2671 7.15688H93.9113C93.3536 7.15688 93.152 7.47944 93.152 7.95656V14.233Z" fill="#252525"/>
<path id="Vector_3" d="M130.556 19.3873C127.155 19.3873 125.798 17.7073 125.798 14.7505V4.88566C125.798 2.44633 127.599 1.25018 129.756 1.25018C131.913 1.25018 133.633 2.48665 133.633 4.72438V12.3582C133.633 12.9966 133.875 13.1982 134.514 13.1982H146.462C148.78 13.1982 149.459 14.7572 149.459 16.2759C149.459 17.7947 148.74 19.394 146.462 19.394H130.556V19.3873ZM151.495 21.8266C157.368 21.8266 160.446 25.1463 160.446 29.8569C160.446 34.5676 157.368 37.8873 151.495 37.8873H135.911C129.998 37.8873 126.96 34.4534 126.96 29.8569C126.96 25.2605 129.998 21.8266 135.911 21.8266H151.495ZM149.459 32.3366C151.455 32.3366 152.335 31.1808 152.335 29.8569C152.335 28.5331 151.455 27.3773 149.459 27.3773H137.988C135.952 27.3773 135.071 28.5331 135.071 29.8569C135.071 31.1808 135.952 32.3366 137.988 32.3366H149.459ZM160.849 12.1163C163.288 12.1163 164.007 13.7157 164.007 15.315C164.007 16.9143 163.248 18.4734 160.849 18.4734H159.807V20.7917H151.817V4.20023C151.817 1.59961 153.699 0.242188 155.816 0.242188C157.812 0.242188 159.572 1.43834 159.774 3.71639H160.856C163.295 3.71639 164.014 5.31574 164.014 6.91508C164.014 8.51443 163.255 10.0735 160.856 10.0735H159.814V12.1096H160.856L160.849 12.1163Z" fill="#252525"/>
<g id="Group 143">
<path id="Vector_4" d="M8.25898 4.92013C5.74572 6.62699 6.06828 11.0487 7.13003 13.5485C7.26443 13.8644 7.54666 14.496 8.09098 15.2151C9.19305 16.68 10.826 17.688 12.553 18.2458C13.8701 18.6691 16.2691 19.0186 16.4506 20.7657C16.6119 22.2979 14.9251 23.7427 14.0784 24.8313C12.9159 26.3366 11.7937 27.9897 11.209 29.8108C10.3758 32.4114 10.5303 35.9662 13.0839 37.5656C14.6698 38.5601 16.6858 38.4996 18.4733 38.2241C20.664 37.8881 22.8412 37.3438 24.9983 36.8264C28.1701 36.067 32.3231 35.4017 34.1912 32.3778C36.2609 29.0313 34.6146 24.0652 30.7708 23.0035C28.8556 22.4726 27.4377 21.5654 26.0534 20.1408C24.8572 18.911 23.7215 17.6342 21.9542 17.2982C20.6841 17.0563 18.9907 17.4125 17.976 16.4179C17.015 15.4839 18.1037 14.1399 17.929 11.7879C17.7072 8.86473 15.7114 5.51148 12.7009 4.55053C12.1095 4.36238 9.93896 3.77102 8.2657 4.91341L8.25898 4.92013Z" fill="#252525"/>
<path id="Vector_5" d="M21.9407 0.261943C19.1654 1.26321 17.9491 5.20109 18.3523 8.15787C18.9436 12.4721 23.2041 16.2823 25.8517 15.5632C28.9765 14.7098 29.7829 7.59339 28.1432 3.50095C27.3503 1.51857 26.2079 0.812977 25.9256 0.644979C24.669 -0.0874937 23.1167 -0.161413 21.934 0.261943H21.9407Z" fill="#252525"/>
<path id="Vector_6" d="M33.1029 20.166C30.2671 19.0975 30.1529 14.6489 30.1395 13.9702C30.1193 13.0832 30.0051 8.97731 32.7871 7.61316C34.7762 6.63205 36.9064 7.6938 37.108 7.7946C39.9506 9.27299 40.7435 13.2579 39.8565 16.0332C39.6818 16.5843 39.1173 18.2643 37.4171 19.373C37.1282 19.5612 35.0786 20.8985 33.1164 20.1593L33.1029 20.166Z" fill="#252525"/>
<path id="Vector_7" d="M8.42711 17.5724C3.81051 13.3321 1.3107 17.3237 1.3107 17.3237C1.3107 17.3237 -3.21182 23.3851 4.52283 27.6119C12.2575 31.8388 13.0437 21.8126 8.42039 17.5656L8.42711 17.5724ZM4.50939 22.6325C3.27964 22.6325 2.29181 21.6379 2.29181 20.4149C2.29181 19.1919 3.28636 18.1973 4.50939 18.1973C5.73241 18.1973 6.72696 19.1919 6.72696 20.4149C6.72696 21.6379 5.73241 22.6325 4.50939 22.6325Z" fill="#252525" fill-opacity="0.7"/>
</g>
</g>
<defs>
<clipPath id="clip0_601_2935">
<rect width="164" height="38.4044" fill="white"/>
</clipPath>
</defs>
</svg>
