<svg width="12" height="12" viewBox="0 0 12 12" fill="none" xmlns="http://www.w3.org/2000/svg">
<path d="M9.14986 2.85535C8.95486 2.66035 8.63986 2.66035 8.44486 2.85535L5.99986 5.29535L3.55486 2.85035C3.35986 2.65535 3.04486 2.65535 2.84986 2.85035C2.65486 3.04535 2.65486 3.36035 2.84986 3.55535L5.29486 6.00035L2.84986 8.44535C2.65486 8.64035 2.65486 8.95535 2.84986 9.15035C3.04486 9.34535 3.35986 9.34535 3.55486 9.15035L5.99986 6.70535L8.44486 9.15035C8.63986 9.34535 8.95486 9.34535 9.14986 9.15035C9.34486 8.95535 9.34486 8.64035 9.14986 8.44535L6.70486 6.00035L9.14986 3.55535C9.33986 3.36535 9.33986 3.04535 9.14986 2.85535Z" fill="black" fill-opacity="0.4"/>
</svg>
