<svg width="25" height="24" viewBox="0 0 25 24" fill="none" xmlns="http://www.w3.org/2000/svg">
<path d="M15.2809 4.98097L10.2809 3.23097C9.86086 3.08097 9.40086 3.08097 8.98086 3.22097L4.99086 4.56097C4.18086 4.84097 3.63086 5.60097 3.63086 6.46097V18.311C3.63086 19.721 5.04086 20.681 6.35086 20.171L9.28086 19.031C9.50086 18.941 9.75086 18.941 9.97086 19.021L14.9709 20.771C15.3909 20.921 15.8509 20.921 16.2709 20.781L20.2609 19.441C21.0709 19.171 21.6209 18.401 21.6209 17.541V5.69097C21.6209 4.28097 20.2109 3.32097 18.9009 3.83097L15.9709 4.97097C15.7509 5.05097 15.5109 5.06097 15.2809 4.98097ZM15.6309 18.891L9.63086 16.781V5.11097L15.6309 7.22097V18.891Z" fill="black"/>
</svg>
