<svg width="25" height="24" viewBox="0 0 25 24" fill="none" xmlns="http://www.w3.org/2000/svg">
<path d="M21.125 6H3.125C2.025 6 1.125 6.9 1.125 8V16C1.125 17.1 2.025 18 3.125 18H21.125C22.225 18 23.125 17.1 23.125 16V8C23.125 6.9 22.225 6 21.125 6ZM10.125 13H8.125V15C8.125 15.55 7.675 16 7.125 16C6.575 16 6.125 15.55 6.125 15V13H4.125C3.575 13 3.125 12.55 3.125 12C3.125 11.45 3.575 11 4.125 11H6.125V9C6.125 8.45 6.575 8 7.125 8C7.675 8 8.125 8.45 8.125 9V11H10.125C10.675 11 11.125 11.45 11.125 12C11.125 12.55 10.675 13 10.125 13ZM15.625 15C14.795 15 14.125 14.33 14.125 13.5C14.125 12.67 14.795 12 15.625 12C16.455 12 17.125 12.67 17.125 13.5C17.125 14.33 16.455 15 15.625 15ZM19.625 12C18.795 12 18.125 11.33 18.125 10.5C18.125 9.67 18.795 9 19.625 9C20.455 9 21.125 9.67 21.125 10.5C21.125 11.33 20.455 12 19.625 12Z" fill="black"/>
</svg>
